<svg width="20" height="20" viewBox="0 0 20 20" fill="none" xmlns="http://www.w3.org/2000/svg">
<mask id="mask0_4835_52" style="mask-type:alpha" maskUnits="userSpaceOnUse" x="0" y="0" width="20" height="20">
<rect width="20" height="20" fill="#D9D9D9"/>
</mask>
<g mask="url(#mask0_4835_52)">
<path d="M2.59008 17C2.1564 17 1.78297 16.8346 1.46978 16.5037C1.15659 16.1729 1 15.7784 1 15.3203V4.67974C1 4.2216 1.15659 3.82711 1.46978 3.49627C1.78297 3.16542 2.1564 3 2.59008 3H17.4099C17.8601 3 18.2376 3.16542 18.5426 3.49627C18.8475 3.82711 19 4.2216 19 4.67974V15.3203C19 15.7784 18.8475 16.1729 18.5426 16.5037C18.2376 16.8346 17.8601 17 17.4099 17H2.59008ZM10 10.7917L17.7143 5.99563L17.5622 4.35821L10 9.03358L2.43777 4.35821L2.28571 5.99563L10 10.7917Z" fill="white"/>
</g>
</svg>
