<svg width="19" height="20" viewBox="0 0 19 20" fill="none" xmlns="http://www.w3.org/2000/svg">
<g clip-path="url(#clip0_4653_34223)">
<path d="M4.38481 -1.07288e-05C4.96534 0.208916 5.45535 0.612736 5.77145 1.14258C6.26782 1.81535 6.70882 2.52732 7.08991 3.27148C7.31017 3.67082 7.43693 4.11489 7.46089 4.57031C7.47488 4.83418 7.43054 5.0979 7.33095 5.34265C7.23136 5.58741 7.07912 5.80718 6.88487 5.98632C6.52241 6.3481 6.12683 6.67505 5.70327 6.96288C5.33071 7.17803 5.05683 7.53015 4.94009 7.94423C4.82334 8.35831 4.87282 8.80161 5.07813 9.17969C5.3883 9.96618 5.82732 10.6955 6.37704 11.3379C7.08274 12.2664 7.88832 13.1146 8.77934 13.8672C9.23159 14.269 9.76931 14.5629 10.3517 14.7266C10.6057 14.7953 10.8734 14.7935 11.1263 14.7212C11.3793 14.6489 11.6079 14.509 11.7872 14.3164C12.1193 13.9746 12.4609 13.6523 12.8222 13.3398C13.1742 12.9881 13.6361 12.7676 14.1309 12.7148C14.5428 12.7042 14.9502 12.8018 15.3125 12.998C15.8446 13.2853 16.3397 13.6362 16.7871 14.043C17.3491 14.4862 17.8601 14.9906 18.3106 15.5469C18.4431 15.6884 18.5439 15.8566 18.6065 16.0401C18.669 16.2237 18.6919 16.4184 18.6735 16.6114C18.655 16.8045 18.5957 16.9914 18.4994 17.1597C18.4032 17.3281 18.2723 17.474 18.1153 17.5879C17.5229 18.1837 16.8681 18.7141 16.1622 19.1699C15.023 19.8112 13.712 20.0809 12.4121 19.9414C10.7635 19.7455 9.19647 19.1153 7.87121 18.1152C6.35697 17.0205 4.99122 15.7337 3.80855 14.2871C2.68969 12.9963 1.74431 11.5649 0.996168 10.0293C0.490274 9.02512 0.159985 7.94177 0.0196057 6.82617C-0.115024 5.85663 -0.0219615 4.86906 0.291641 3.94181C0.605244 3.01456 1.13061 2.17316 1.8261 1.48437C2.26556 1.04492 2.80287 0.664056 3.25208 0.263665C3.43112 0.132723 3.63308 0.0366563 3.84765 -0.0195312L4.38481 -1.07288e-05Z" fill="#BBBBBB"/>
</g>
<defs>
<clipPath id="clip0_4653_34223">
<rect width="18.6621" height="20" fill="white"/>
</clipPath>
</defs>
</svg>
