<svg width="24" height="24" viewBox="0 0 24 24" fill="none" xmlns="http://www.w3.org/2000/svg">
<g clip-path="url(#clip0_4658_34276)">
<rect width="24" height="24" rx="12" fill="white"/>
<path d="M11.9928 0C5.36962 0 0 5.37276 0 11.9998C0 18.627 5.36941 24 11.9928 24C18.6164 24 23.9862 18.627 23.9862 11.9998C23.986 5.37276 18.6164 0 11.9928 0ZM7.01633 5.41218C7.83212 5.41218 8.49384 6.01598 8.49384 6.76087C8.49384 7.50576 7.83212 8.10955 7.01633 8.10955C6.20013 8.10955 5.53883 7.50576 5.53883 6.76087C5.53883 6.01598 6.20013 5.41218 7.01633 5.41218ZM8.50504 16.9476H5.58569V9.32545H8.50504V16.9476ZM18.4252 16.9476H15.4917V12.7563C15.4917 12.2778 15.403 11.9392 15.2261 11.7404C15.049 11.5421 14.8003 11.4425 14.4804 11.4425C14.1264 11.4425 13.8392 11.5765 13.6194 11.8446C13.3994 12.1127 13.2897 12.5934 13.2897 13.2873V16.9476H10.3701V9.32545H13.0885V10.5669C13.4947 10.06 13.9062 9.69748 14.3222 9.47961C14.7381 9.26196 15.2447 9.15323 15.8426 9.15323C16.6509 9.15323 17.2832 9.39351 17.74 9.87447C18.1964 10.3552 18.4249 11.098 18.4249 12.1029L18.4252 16.9476Z" fill="#E27670"/>
</g>
<defs>
<clipPath id="clip0_4658_34276">
<rect width="24" height="24" rx="12" fill="white"/>
</clipPath>
</defs>
</svg>
