<svg width="56" height="60" viewBox="0 0 56 60" fill="none" xmlns="http://www.w3.org/2000/svg">
<path d="M19.037 12.0351C20.0914 12.4113 20.9814 13.1383 21.5555 14.0921C22.4571 15.3033 23.258 16.5851 23.9502 17.9248C24.3502 18.6437 24.5804 19.4432 24.624 20.263C24.6494 20.7381 24.5688 21.2129 24.388 21.6535C24.2071 22.0941 23.9306 22.4898 23.5778 22.8123C22.9194 23.4636 22.201 24.0522 21.4317 24.5704C20.755 24.9577 20.2576 25.5916 20.0456 26.3371C19.8335 27.0825 19.9234 27.8806 20.2963 28.5613C20.8596 29.9772 21.657 31.2902 22.6554 32.4466C23.9371 34.1183 25.4003 35.6453 27.0186 37.0001C27.84 37.7235 28.8166 38.2525 29.8744 38.5472C30.3356 38.671 30.8218 38.6677 31.2813 38.5376C31.7408 38.4074 32.156 38.1555 32.4816 37.8088C33.0847 37.1935 33.7051 36.6133 34.3614 36.0507C35.0007 35.4175 35.8396 35.0205 36.7383 34.9256C37.4864 34.9064 38.2263 35.0822 38.8844 35.4354C39.8507 35.9526 40.7501 36.5843 41.5626 37.3166C42.5834 38.1145 43.5115 39.0226 44.3297 40.024C44.5704 40.2789 44.7534 40.5816 44.8671 40.912C44.9807 41.2425 45.0223 41.5931 44.9887 41.9406C44.9552 42.2881 44.8474 42.6246 44.6726 42.9276C44.4978 43.2307 44.2601 43.4935 43.975 43.6985C42.899 44.7711 41.7097 45.726 40.4277 46.5466C38.3586 47.701 35.9774 48.1866 33.6166 47.9355C30.6222 47.5828 27.7762 46.4483 25.3692 44.6478C22.619 42.677 20.1384 40.3604 17.9904 37.7561C15.9583 35.4323 14.2413 32.8554 12.8824 30.0908C11.9636 28.283 11.3637 26.3327 11.1088 24.3242C10.8643 22.5788 11.0333 20.8009 11.6029 19.1316C12.1724 17.4622 13.1266 15.9475 14.3898 14.7075C15.188 13.9163 16.1639 13.2307 16.9797 12.5098C17.3049 12.2741 17.6717 12.1012 18.0614 12L19.037 12.0351Z" fill="#E27670"/>
</svg>
