<svg width="60" height="60" viewBox="0 0 60 60" fill="none" xmlns="http://www.w3.org/2000/svg">
<mask id="mask0_4707_35148" style="mask-type:alpha" maskUnits="userSpaceOnUse" x="0" y="0" width="60" height="60">
<rect width="60" height="60" fill="#D9D9D9"/>
</mask>
<g mask="url(#mask0_4707_35148)">
<path d="M30 52.5C25.9679 52.5 22.6683 51.9865 20.1012 50.9594C17.5337 49.9319 16.25 48.6025 16.25 46.9712C16.25 46.1954 16.6162 45.4525 17.3487 44.7425C18.0808 44.0329 19.0848 43.4296 20.3606 42.9325L22.3269 44.6012C21.6315 44.8638 20.9127 45.2115 20.1706 45.6444C19.4285 46.0769 18.9646 46.5031 18.7787 46.9231C19.0642 47.7502 20.2742 48.4698 22.4088 49.0819C24.5433 49.694 27.0737 50 30 50C32.8942 50 35.419 49.694 37.5744 49.0819C39.7298 48.4698 40.9502 47.7502 41.2356 46.9231C41.1044 46.4935 40.6252 46.0625 39.7981 45.63C38.971 45.1971 38.189 44.8492 37.4519 44.5863L39.4038 42.9037C40.795 43.4104 41.8671 44.0185 42.62 44.7281C43.3733 45.4381 43.75 46.1858 43.75 46.9712C43.75 48.6025 42.4663 49.9319 39.8988 50.9594C37.3317 51.9865 34.0321 52.5 30 52.5ZM30 45C24.9583 41.1796 21.1979 37.4681 18.7188 33.8656C16.2396 30.2627 15 26.7273 15 23.2594C15 20.654 15.451 18.3727 16.3531 16.4156C17.2556 14.459 18.4279 12.8187 19.87 11.495C21.3125 10.1712 22.9231 9.17458 24.7019 8.505C26.4806 7.835 28.2467 7.5 30 7.5C31.7533 7.5 33.5194 7.835 35.2981 8.505C37.0769 9.17458 38.6875 10.1712 40.13 11.495C41.5721 12.8187 42.7444 14.459 43.6469 16.4156C44.549 18.3727 45 20.654 45 23.2594C45 26.7273 43.7604 30.2627 41.2812 33.8656C38.8021 37.4681 35.0417 41.1796 30 45ZM30 26.9712C31.1187 26.9712 32.0715 26.5858 32.8581 25.815C33.6452 25.0442 34.0387 24.0833 34.0387 22.9325C34.0387 21.8142 33.6452 20.8615 32.8581 20.0744C32.0715 19.2877 31.1187 18.8944 30 18.8944C28.9133 18.8944 27.9685 19.2877 27.1656 20.0744C26.3627 20.8615 25.9613 21.8142 25.9613 22.9325C25.9613 24.0833 26.3627 25.0442 27.1656 25.815C27.9685 26.5858 28.9133 26.9712 30 26.9712Z" fill="#E27670"/>
</g>
</svg>
