<svg width="60" height="60" viewBox="0 0 60 60" fill="none" xmlns="http://www.w3.org/2000/svg">
<mask id="mask0_4707_35165" style="mask-type:alpha" maskUnits="userSpaceOnUse" x="0" y="0" width="60" height="60">
<rect width="60" height="60" fill="#D9D9D9"/>
</mask>
<g mask="url(#mask0_4707_35165)">
<path d="M16.0515 43C15.182 43 14.456 42.7137 13.8736 42.1411C13.2912 41.5685 13 40.8547 13 39.9998V20.0002C13 19.1453 13.2912 18.4315 13.8736 17.8589C14.456 17.2863 15.182 17 16.0515 17H43.9485C44.818 17 45.544 17.2863 46.1264 17.8589C46.7088 18.4315 47 19.1453 47 20.0002V39.9998C47 40.8547 46.7088 41.5685 46.1264 42.1411C45.544 42.7137 44.818 43 43.9485 43H16.0515ZM30 30.2145L45.1111 20.4998L44.5298 18.8571L30 28.1429L15.4702 18.8571L14.8889 20.4998L30 30.2145Z" fill="#E27670"/>
</g>
</svg>
